<?xml version="1.0" encoding="UTF-8" standalone="no"?>
<!-- Created with Inkscape (http://www.inkscape.org/) -->

<svg
   xmlns:dc="http://purl.org/dc/elements/1.1/"
   xmlns:cc="http://creativecommons.org/ns#"
   xmlns:rdf="http://www.w3.org/1999/02/22-rdf-syntax-ns#"
   xmlns:svg="http://www.w3.org/2000/svg"
   xmlns="http://www.w3.org/2000/svg"
   xmlns:xlink="http://www.w3.org/1999/xlink"
   xmlns:sodipodi="http://sodipodi.sourceforge.net/DTD/sodipodi-0.dtd"
   xmlns:inkscape="http://www.inkscape.org/namespaces/inkscape"
   width="64"
   height="64"
   viewBox="0 0 37.829248 47.464234"
   version="1.1"
   id="svg8"
   inkscape:version="0.92.1 r15371"
   sodipodi:docname="Quaero.svg">
  <defs
     id="defs2">
    <clipPath
       clipPathUnits="userSpaceOnUse"
       id="clipPath58">
      <use
         x="0"
         y="0"
         xlink:href="#g54"
         id="use60"
         width="100%"
         height="100%"
         transform="translate(0,-8.0180858)" />
    </clipPath>
    <clipPath
       clipPathUnits="userSpaceOnUse"
       id="clipPath173">
      <g
         inkscape:label="Clip"
         id="use175">
        <flowRoot
           transform="matrix(0.26458333,0,0,0.26458333,36.682743,12.428033)"
           style="font-style:normal;font-weight:normal;font-size:40px;line-height:1.25;font-family:sans-serif;letter-spacing:0px;word-spacing:0px;fill:#000000;fill-opacity:1;stroke:none"
           id="flowRoot204"
           xml:space="preserve"><flowRegion
             id="flowRegion200"><rect
               y="399.66254"
               x="82.85714"
               height="167.14285"
               width="157.14285"
               id="rect198" /></flowRegion><flowPara
             style="font-style:normal;font-variant:normal;font-weight:normal;font-stretch:normal;font-size:96px;font-family:'Segoe Script';-inkscape-font-specification:'Segoe Script'"
             id="flowPara202">a</flowPara></flowRoot>      </g>
    </clipPath>
  </defs>
  <sodipodi:namedview
     id="base"
     pagecolor="#ffffff"
     bordercolor="#666666"
     borderopacity="1.0"
     inkscape:pageopacity="0.0"
     inkscape:pageshadow="2"
     inkscape:zoom="0.7"
     inkscape:cx="231.29906"
     inkscape:cy="100.11803"
     inkscape:document-units="mm"
     inkscape:current-layer="layer1"
     showgrid="false"
     inkscape:window-width="1440"
     inkscape:window-height="837"
     inkscape:window-x="-8"
     inkscape:window-y="-8"
     inkscape:window-maximized="1"
     units="px"
     fit-margin-bottom="-0.1"
     fit-margin-top="0"
     fit-margin-left="0"
     fit-margin-right="0" />
  <metadata
     id="metadata5">
    <rdf:RDF>
      <cc:Work
         rdf:about="">
        <dc:format>image/svg+xml</dc:format>
        <dc:type
           rdf:resource="http://purl.org/dc/dcmitype/StillImage" />
        <dc:title></dc:title>
      </cc:Work>
    </rdf:RDF>
  </metadata>
  <g
     inkscape:label="Layer 1"
     inkscape:groupmode="layer"
     id="layer1"
     transform="translate(-17.316391,-101.56425)">
    <g
       id="g54"
       inkscape:label="Clip"
       transform="translate(0,8.0180858)">
      <path
         id="path75"
         d="m 50.986967,116.25366 c 0.584045,-1.21581 0.25477,-0.56282 1.554983,-2.12644 0.951769,-1.35727 0.991743,-2.70485 1.431731,-4.13854 -0.806598,-18.927042 -22.191533,-18.832907 -31.275103,-8.26937 -0.745049,1.39756 -2.045686,3.64798 -2.49292,5.27737 -0.882674,3.2158 -1.181512,5.7277 -1.471199,9.02022 -0.348667,3.96287 0.710888,7.02929 1.490844,11.01968 4.68305,10.97094 11.142626,14.9127 18.337244,11.3642 4.078736,-1.98941 8.693334,-7.43585 11.799817,-10.41355 -7.005658,3.97913 -16.357215,1.76262 -19.17453,0.88094 7.904126,4.50644 15.547889,5.26941 23.782832,5.32193 0.05833,8e-5 0.116649,1.6e-4 0.174974,2.5e-4 l -1.586307,1.15251 v 0 c -0.05855,9e-5 -0.117102,1.7e-4 -0.175651,2.5e-4 -7.044637,0.49144 -20.906318,-2.70462 -24.828151,-7.82631 1.594892,0.61552 15.744274,3.04735 22.723016,-0.64885 0.252238,-0.013 1.408839,-0.54062 1.634846,-0.40402 -7.916422,8.79984 -8.577623,10.37647 -13.705746,12.82889 -9.504283,5.00504 -16.243758,-1.19733 -20.629486,-13.0496 -0.384414,-2.88879 -1.524132,-6.82231 -1.206583,-9.46025 0.582919,-7.97014 1.816619,-14.73245 7.604689,-18.872185 6.370702,-5.012558 21.486444,-7.403653 27.317855,2.331865 2.742755,4.27987 3.795776,10.91048 0.935991,14.91521 -0.527393,0.36069 -2.17916,3.02916 -2.243146,1.0958 z"
         inkscape:connector-curvature="0"
         style="stroke-width:0.26458332"
         sodipodi:nodetypes="ccccssccccccccccccccccccc" />
      <ellipse
         id="path95"
         cx="84.00795"
         cy="79.336304"
         rx="1.0394346"
         ry="1.7953868"
         style="stroke-width:0.26458332"
         transform="rotate(32.581541)" />
      <ellipse
         id="path95-7"
         cx="96.059784"
         cy="71.522163"
         rx="1.0394346"
         ry="1.7953868"
         style="stroke-width:0.26458332"
         transform="rotate(32.581541)" />
    </g>
    <path
       id="path227"
       d="m 28.603767,123.32094 c 2.738215,-0.54901 3.880868,-6.85157 5.111608,-7.59456 0.09627,0.2275 0.03387,0.5631 0.0014,0.79495 -0.07044,2.16956 -1.135883,4.71681 -1.72172,6.57388 -1.247255,3.95373 -2.336096,6.81357 -1.75773,6.93731 1.070246,-0.43202 1.668767,-1.24307 2.268863,-1.93133 0.925821,-1.06184 1.659759,-2.09227 2.615366,-3.01456 1.073076,-0.87157 3.292916,-3.72536 0.800195,0.65252 -1.894625,2.0479 -3.096805,4.65129 -5.277505,5.83513 -0.181475,0.008 -0.362844,0.0306 -0.544425,0.025 -0.05875,-0.002 -0.11389,-0.0293 -0.169968,-0.0469 -0.18914,-0.0593 -0.355495,-0.16466 -0.490025,-0.31056 -1.389798,-1.72442 -0.19007,-4.43626 0.287421,-6.17497 0.02151,-0.0733 0.03819,-0.17891 0.08159,-0.24521 0.0019,-0.003 0.005,0.0119 0.0059,0.009 0.0074,-0.0283 0.0097,-0.0577 0.0145,-0.0866 0.0315,-0.15694 0.06231,-0.31292 0.09136,-0.47053 0.783332,-1.96382 2.436273,-7.18902 3.805707,-8.13243 2.44e-4,-0.0425 -0.01021,0.0307 -0.02011,0.0722 -0.0019,0.008 -0.0047,0.0147 -0.0071,0.0221 -0.0187,-0.003 -0.01596,0.21825 -0.01779,0.28987 -0.0024,0.0281 -0.0053,0.056 -0.008,0.084 -0.736959,3.22396 -1.370888,3.62768 -2.134887,5.50382 -0.125166,0.17036 -0.397208,0.54407 -0.598777,0.79388 -0.0043,0.001 -0.0094,0.006 -0.01288,0.003 -0.0041,-0.003 0.0011,-0.0198 -0.0024,-0.0158 -0.171382,0.29319 -0.381303,0.58135 -0.600456,0.83503 -0.02389,0.0138 -0.148693,0.20313 -0.18896,0.24413 -0.07027,0.0494 -0.148045,0.14201 -0.195242,0.1909 -0.420882,0.36927 -0.623416,0.45819 -0.80544,0.55634 -0.0049,0.002 -0.01169,-0.004 -0.01646,-7.9e-4 -0.05814,0.0339 -0.111744,0.0871 -0.163156,0.12818 -0.08942,0.0319 0.08271,-0.0328 -0.101806,0.0678 -0.0085,0.005 0.258098,-0.25246 0.231538,-0.19996 -12.623891,2.69197 0.03909,-16.11049 4.630977,-8.9894 0.02273,0.18786 -0.220018,0.57037 -0.215318,0.75953 -4.024272,-4.73224 -10.521125,5.64604 -7.927203,7.16068 0.588329,0.34353 1.330602,0.56722 3.030913,-0.32565 z"
       inkscape:connector-curvature="0"
       style="stroke-width:0.26458332"
       sodipodi:nodetypes="cccscsccccccccccccccccccccccccccccccscc" />
    <path
       id="path227-8"
       d="m 41.951426,123.54276 c 2.74884,-0.49588 3.487595,-5.94996 5.111608,-7.59456 0.09627,0.2275 0.03387,0.5631 0.0014,0.79495 -0.147408,2.09259 -1.775308,4.07739 -1.721721,6.57388 0.196934,2.15826 3.033853,1.86334 3.484506,1.69852 1.042752,-0.72774 1.893621,-0.95637 2.849228,-1.87866 l 0.437448,1.26889 c -7.777036,5.27891 -9.913182,-2.51566 -5.039932,-8.04287 2.44e-4,-0.0425 -0.01021,0.0307 -0.02011,0.0722 -0.0019,0.008 -0.0047,0.0147 -0.0071,0.0221 -0.0187,-0.003 -0.01596,0.21825 -0.01779,0.28986 -0.0024,0.0281 -0.0053,0.056 -0.008,0.084 -0.73696,3.22396 -1.370889,3.62768 -2.134888,5.50382 -0.125166,0.17036 -0.397208,0.54407 -0.598777,0.79388 -0.0043,10e-4 -0.0094,0.006 -0.01288,0.003 -0.0041,-0.003 0.0011,-0.0198 -0.0024,-0.0158 -0.171382,0.29319 -0.381303,0.58135 -0.600456,0.83503 -0.02389,0.0138 -0.148694,0.20313 -0.18896,0.24413 -0.07027,0.0494 -0.148045,0.14201 -0.195242,0.1909 -0.420882,0.36927 -0.623416,0.45819 -0.80544,0.55634 -0.0049,0.002 -0.01169,-0.004 -0.01646,-7.9e-4 -0.05814,0.0339 -0.111745,0.0871 -0.163157,0.12818 -0.08942,0.0319 0.08271,-0.0328 -0.101805,0.0678 -0.0085,0.005 0.258097,-0.25246 0.231538,-0.19996 -12.623891,2.69197 0.03909,-16.11049 4.630977,-8.9894 0.02273,0.18786 -0.220019,0.57037 -0.215318,0.75953 -4.024265,-4.73224 -10.521118,5.64604 -7.927196,7.16068 0.588329,0.34353 1.330602,0.56722 3.030913,-0.32565 z"
       inkscape:connector-curvature="0"
       style="stroke-width:0.26458332"
       sodipodi:nodetypes="ccccccccccccccccccccccccccscc" />
  </g>
</svg>
